<?xml version="1.0" encoding="iso-8859-1"?>
<!-- Generator: Adobe Illustrator 19.0.0, SVG Export Plug-In . SVG Version: 6.00 Build 0)  -->
<svg version="1.1" id="Capa_1" xmlns="http://www.w3.org/2000/svg" xmlns:xlink="http://www.w3.org/1999/xlink" x="0px" y="0px"
	 viewBox="0 0 470 470" style="enable-background:new 0 0 470 470;" xml:space="preserve">
<g>
	<path d="M123.431,225.992c-9.486-9.485-23.904-11.096-35.074-4.845v-97.676c0-4.961-1.242-9.636-3.426-13.737
		c1.314-0.391,2.69-0.596,4.093-0.596c7.903,0,14.333,6.429,14.333,14.333v72.109c0,4.142,3.358,7.5,7.5,7.5s7.5-3.358,7.5-7.5
		v-72.109c0-16.174-13.159-29.333-29.333-29.333c-5.35,0-10.508,1.445-15.01,4.133c-4.39-2.621-9.516-4.133-14.99-4.133
		c-16.174,0-29.333,13.158-29.333,29.339l0.122,137.644c0.005,6.281,2.331,15.148,5.409,20.625c0.05,0.09,0.103,0.178,0.157,0.266
		l86.394,139.901c1.794,3.271,3.411,9.494,3.411,13.162V462.5c0,4.142,3.358,7.5,7.5,7.5s7.5-3.358,7.5-7.5v-27.425
		c0-6.283-2.322-15.153-5.401-20.631c-0.051-0.09-0.103-0.178-0.157-0.266L48.234,274.278c-1.795-3.273-3.416-9.499-3.419-13.169
		l-0.122-137.637c0-7.903,6.43-14.333,14.333-14.333s14.333,6.429,14.333,14.333v123.262c0,0.176,0.014,0.349,0.026,0.522
		c0.129,7.336,2.979,14.633,8.565,20.219l67.177,67.176c2.929,2.929,7.678,2.929,10.606,0c2.929-2.929,2.929-7.677,0-10.606
		l-67.177-67.176c-5.588-5.588-5.588-14.681,0-20.269c5.588-5.588,14.681-5.588,20.27,0l82.656,82.656
		c9.226,9.226,17.021,28.044,17.021,41.092V462.5c0,4.142,3.358,7.5,7.5,7.5s7.5-3.358,7.5-7.5V360.347
		c0-16.982-9.406-39.691-21.415-51.699L123.431,225.992z"/>
	<path d="M410.976,94.139c-5.474,0-10.6,1.511-14.99,4.133c-4.502-2.688-9.66-4.133-15.01-4.133
		c-16.174,0-29.333,13.158-29.333,29.333v72.109c0,4.142,3.357,7.5,7.5,7.5s7.5-3.358,7.5-7.5v-72.109
		c0-7.903,6.43-14.333,14.333-14.333c1.403,0,2.779,0.205,4.093,0.596c-2.183,4.101-3.426,8.776-3.426,13.737v97.664
		c-4.33-2.433-9.23-3.734-14.332-3.734c-7.835,0-15.201,3.051-20.741,8.591l-82.655,82.656
		c-12.009,12.008-21.415,34.717-21.415,51.699V462.5c0,4.142,3.357,7.5,7.5,7.5s7.5-3.358,7.5-7.5V360.347
		c0-13.048,7.795-31.866,17.021-41.092l82.656-82.656c2.706-2.707,6.306-4.198,10.134-4.198s7.428,1.491,10.134,4.198
		c2.708,2.707,4.198,6.306,4.198,10.135s-1.49,7.427-4.198,10.135l-67.176,67.176c-2.929,2.929-2.929,7.678,0,10.606
		c2.929,2.928,7.677,2.93,10.607,0l67.175-67.176c5.541-5.54,8.592-12.906,8.592-20.741V123.471c0-7.903,6.43-14.333,14.333-14.333
		c7.902,0,14.332,6.429,14.332,14.326l-0.121,137.643c-0.004,3.672-1.625,9.898-3.42,13.169l-86.393,139.901
		c-0.055,0.087-0.106,0.176-0.157,0.266c-3.079,5.478-5.401,14.348-5.401,20.631V462.5c0,4.142,3.357,7.5,7.5,7.5s7.5-3.358,7.5-7.5
		v-27.425c0-3.668,1.617-9.89,3.411-13.162l86.393-139.901c0.055-0.087,0.106-0.175,0.156-0.265
		c3.079-5.475,5.405-14.342,5.411-20.626l0.121-137.65C440.308,107.297,427.15,94.139,410.976,94.139z"/>
	<path d="M230.793,59.003c-4.142,0-7.5,3.358-7.5,7.5v79.843c0,12.171-9.902,22.073-22.073,22.073
		c-12.171,0-22.072-9.901-22.073-22.072c0-0.001,0-0.003,0-0.004v-78.92c0-29.396,22.686-52.423,51.646-52.423
		c28.478,0,51.647,23.523,51.647,52.436c0,4.142,3.357,7.5,7.5,7.5h36.174c0.037,5.229,0.076,12.761,0.076,21.068
		c0,11.633-9.444,21.096-21.054,21.096h-14.381c-4.143,0-7.5,3.358-7.5,7.5v125.599c0,4.142,3.357,7.5,7.5,7.5s7.5-3.358,7.5-7.5
		V132.101h6.881c19.88,0,36.054-16.193,36.054-36.096c0-15.623-0.138-28.521-0.139-28.65c-0.045-4.11-3.39-7.419-7.5-7.419h-36.512
		c-1.632-15.179-8.205-29.215-18.918-40.126C265.579,7.035,248.771,0,230.793,0c-17.979,0-34.786,7.033-47.328,19.802
		c-12.458,12.685-19.319,29.597-19.319,47.62v75.816l-28.255,28.255c-2.929,2.929-2.929,7.677,0,10.606
		c1.464,1.465,3.384,2.197,5.303,2.197c1.919,0,3.839-0.732,5.303-2.197l20.807-20.807c5.76,13.016,18.79,22.125,33.915,22.125
		c20.442,0,37.073-16.631,37.073-37.073V66.503C238.292,62.361,234.935,59.003,230.793,59.003z"/>
</g>
<g>
</g>
<g>
</g>
<g>
</g>
<g>
</g>
<g>
</g>
<g>
</g>
<g>
</g>
<g>
</g>
<g>
</g>
<g>
</g>
<g>
</g>
<g>
</g>
<g>
</g>
<g>
</g>
<g>
</g>
</svg>
