<?xml version="1.0" encoding="iso-8859-1"?>
<!-- Generator: Adobe Illustrator 19.0.0, SVG Export Plug-In . SVG Version: 6.00 Build 0)  -->
<svg version="1.1" id="Layer_1" xmlns="http://www.w3.org/2000/svg" xmlns:xlink="http://www.w3.org/1999/xlink" x="0px" y="0px"
	 viewBox="0 0 512 512" style="enable-background:new 0 0 512 512;" xml:space="preserve">
<g>
	<g>
		<g>
			<path d="M403.17,48.659h-73.434V17.803C329.736,7.971,321.765,0,311.933,0H200.066c-9.832,0-17.803,7.971-17.803,17.803v30.856
				H108.83c-9.832,0-17.803,7.971-17.803,17.803v323.573c0,9.832,7.971,17.803,17.803,17.803h129.364v39.693
				c0,9.832,7.971,17.803,17.803,17.803c9.832,0,17.803-7.971,17.803-17.803v-39.693h58.16v86.359
				c0,9.832,7.971,17.803,17.803,17.803s17.803-7.971,17.803-17.803v-86.359h35.606c9.832,0,17.803-7.971,17.803-17.803V66.462
				C420.973,56.63,413.002,48.659,403.17,48.659z M385.368,372.232H126.632V84.265h258.735V372.232z"/>
			<path d="M162.238,354.429h187.524c9.832,0,17.803-7.971,17.803-17.803V119.87c0-9.832-7.971-17.803-17.803-17.803H162.238
				c-9.832,0-17.803,7.971-17.803,17.803v216.756C144.435,346.458,152.406,354.429,162.238,354.429z M242.196,168.924
				c7.122-8.75,20.496-8.739,27.611,0c13.332,16.362,38.585,50.965,38.585,72.82c0,28.888-23.502,52.391-52.39,52.391
				s-52.39-23.503-52.39-52.391C203.61,220.014,228.782,185.386,242.196,168.924z"/>
		</g>
	</g>
</g>
<g>
</g>
<g>
</g>
<g>
</g>
<g>
</g>
<g>
</g>
<g>
</g>
<g>
</g>
<g>
</g>
<g>
</g>
<g>
</g>
<g>
</g>
<g>
</g>
<g>
</g>
<g>
</g>
<g>
</g>
</svg>
