<?xml version="1.0" encoding="iso-8859-1"?>
<!-- Generator: Adobe Illustrator 16.0.0, SVG Export Plug-In . SVG Version: 6.00 Build 0)  -->
<!DOCTYPE svg PUBLIC "-//W3C//DTD SVG 1.1//EN" "http://www.w3.org/Graphics/SVG/1.1/DTD/svg11.dtd">
<svg version="1.1" id="Capa_1" xmlns="http://www.w3.org/2000/svg" xmlns:xlink="http://www.w3.org/1999/xlink" x="0px" y="0px"
	 width="18.121px" height="18.121px" viewBox="0 0 18.121 18.121" style="enable-background:new 0 0 18.121 18.121;"
	 xml:space="preserve">
<g>
	<g>
		<path d="M5.061,3.655c0-0.222,0.03-0.435,0.057-0.648C5.098,3.007,5.081,3,5.061,3c-1.656,0-3,1.636-3,3.655S3.405,11,5.061,11
			C6.18,11,7.144,9.934,7.66,8.623C6.109,7.777,5.061,5.628,5.061,3.655z"/>
		<path d="M13.061,3c-0.02,0-0.037,0.007-0.057,0.007c0.027,0.213,0.057,0.426,0.057,0.648c0,1.973-1.049,4.122-2.6,4.968
			c0.517,1.311,1.48,2.377,2.6,2.377c1.657,0,3-2.325,3-4.345S14.718,3,13.061,3z"/>
		<path d="M12.061,3.655c0,2.02-1.343,4.345-3,4.345c-1.656,0-3-2.325-3-4.345S7.405,0,9.061,0C10.718,0,12.061,1.635,12.061,3.655z
			"/>
		<path d="M13.119,10.675c-0.059-0.03-0.129-0.011-0.162,0.047l-3.775,6.815V7.779c0-0.066-0.054-0.12-0.12-0.12
			s-0.12,0.054-0.12,0.12v9.758l-3.775-6.815c-0.033-0.058-0.105-0.079-0.162-0.047c-0.058,0.032-0.078,0.104-0.047,0.162l4,7.221
			c0.002,0.005,0.008,0.003,0.011,0.007c0.008,0.012,0.016,0.021,0.026,0.027C9,18.096,9,18.102,9.004,18.105
			c0.017,0.008,0.034,0.012,0.052,0.012c0.002,0.002,0.004,0.004,0.006,0.004s0.004-0.002,0.006-0.004
			c0.018,0,0.035-0.004,0.052-0.012c0.005-0.004,0.005-0.01,0.01-0.014c0.011-0.008,0.019-0.018,0.026-0.027
			c0.003-0.004,0.009-0.002,0.011-0.007l4-7.221C13.197,10.779,13.176,10.707,13.119,10.675z"/>
	</g>
</g>
<g>
</g>
<g>
</g>
<g>
</g>
<g>
</g>
<g>
</g>
<g>
</g>
<g>
</g>
<g>
</g>
<g>
</g>
<g>
</g>
<g>
</g>
<g>
</g>
<g>
</g>
<g>
</g>
<g>
</g>
</svg>
