<?xml version="1.0" encoding="utf-8"?>
<!-- Uploaded to SVGRepo https://www.svgrepo.com -->
<svg version="1.2" baseProfile="tiny" id="Layer_1" xmlns="http://www.w3.org/2000/svg" xmlns:xlink="http://www.w3.org/1999/xlink"
	 x="0px" y="0px" viewBox="0 0 256 256" xml:space="preserve">
<path d="M162.4,46H60.6V29.6H22.5V254h178.1V29.6h-38.1V46z M67.2,196.1c-7,0-12.7-5.7-12.7-12.7s5.7-12.7,12.7-12.7
	c7,0,12.7,5.7,12.7,12.7S74.2,196.1,67.2,196.1z M67.2,153.6c-7,0-12.7-5.7-12.7-12.7c0-7,5.7-12.7,12.7-12.7
	c7,0,12.7,5.7,12.7,12.7C79.9,148,74.2,153.6,67.2,153.6z M67.2,111c-7,0-12.7-5.7-12.7-12.7s5.7-12.7,12.7-12.7
	c7,0,12.7,5.7,12.7,12.7S74.2,111,67.2,111z M168.6,193.1H92.9v-19.4h75.6V193.1z M168.6,150.6H92.9v-19.4h75.6V150.6z M168.6,108
	H92.9V88.6h75.6V108z M152.7,15.6h-27.5c-0.2-7.5-6.4-13.5-13.9-13.5s-13.6,6-13.9,13.5H70.2v23h82.6V15.6z M111.5,22.3
	c-3.5,0-6.4-2.9-6.4-6.4c0-0.1,0-0.2,0-0.3c0.2-3.3,3-6,6.4-6c3.3,0,6.1,2.7,6.4,6c0,0.1,0,0.2,0,0.3
	C117.9,19.6,115,22.3,111.5,22.3z M216.7,51H236v153.9h-19.3V51z M226.5,229l9.5-19.9h-19.3L226.5,229z"/>
</svg>
